<?xml version="1.0" standalone="no"?><!-- Generator: Gravit.io --><svg xmlns="http://www.w3.org/2000/svg" xmlns:xlink="http://www.w3.org/1999/xlink" style="isolation:isolate" viewBox="0 0 200 200" width="200" height="200"><defs><clipPath id="_clipPath_PEkRYSyKXxUMHM48TuqcvgQURP7pXMqb"><rect width="200" height="200"/></clipPath></defs><g clip-path="url(#_clipPath_PEkRYSyKXxUMHM48TuqcvgQURP7pXMqb)"><path d=" M 45 149 L 35 176 L 55 176 L 45 149 Z " fill="rgb(140,95,65)"/><path d=" M 51 149 L 36 195 L 66 195 L 51 149 Z " fill="rgb(140,95,65)"/><path d=" M 146 124 L 131 170 L 161 170 L 146 124 Z " fill="rgb(140,95,65)"/><path d=" M 149 149 L 134 195 L 164 195 L 149 149 Z " fill="rgb(140,95,65)"/><path d=" M 155 199.5 L 155 109.5 C 155 79.145 130.355 54.5 100 54.5 L 100 54.5 C 69.645 54.5 45 79.145 45 109.5 L 45 199.5 L 155 199.5 Z " fill="rgb(140,95,65)"/><path d="M 65.5 109.5 L 76.5 109.5 C 79.536 109.5 82 111.964 82 115 L 82 115 C 82 118.036 79.536 120.5 76.5 120.5 L 65.5 120.5 C 62.464 120.5 60 118.036 60 115 L 60 115 C 60 111.964 62.464 109.5 65.5 109.5 Z" style="stroke:none;fill:#764F36;stroke-miterlimit:10;"/><path d="M 121.5 109.5 L 132.5 109.5 C 135.536 109.5 138 111.964 138 115 L 138 115 C 138 118.036 135.536 120.5 132.5 120.5 L 121.5 120.5 C 118.464 120.5 116 118.036 116 115 L 116 115 C 116 111.964 118.464 109.5 121.5 109.5 Z" style="stroke:none;fill:#764F36;stroke-miterlimit:10;"/><path d="M 124 112 L 130 112 C 131.656 112 133 113.344 133 115 L 133 115 C 133 116.656 131.656 118 130 118 L 124 118 C 122.344 118 121 116.656 121 115 L 121 115 C 121 113.344 122.344 112 124 112 Z" style="stroke:none;fill:#FDFDFD;stroke-miterlimit:10;"/><path d="M 68 112 L 74 112 C 75.656 112 77 113.344 77 115 L 77 115 C 77 116.656 75.656 118 74 118 L 68 118 C 66.344 118 65 116.656 65 115 L 65 115 C 65 113.344 66.344 112 68 112 Z" style="stroke:none;fill:#FDFDFD;stroke-miterlimit:10;"/><path d=" M 105 135.506 C 104.7 132.689 102.312 130.494 99.416 130.494 C 96.519 130.494 94.131 132.689 93.831 135.506 L 105 135.506 Z " fill="rgb(53,39,32)"/><rect x="90" y="167" width="19" height="3" transform="matrix(1,0,0,1,0,0)" fill="rgb(0,0,0)"/></g></svg>